<svg width="6000" height="1000" viewBox="0 0 2590 499" fill="none" xmlns="http://www.w3.org/2000/svg">
<g clip-path="url(#clip0_408_647)">
<path d="M2345.24 485.841V487.024C2344.52 487.693 2343.65 488.336 2342.64 488.944L2338.93 490.717L2335.22 492.046C2331.35 493.356 2326.95 494.404 2322.22 495.148H2320.37C2315.76 495.88 2310.86 496.28 2305.89 496.33H2157.41C2153.45 496.382 2149.51 496.091 2145.86 495.48C2142.21 494.867 2138.93 493.948 2136.26 492.785L1974.04 426.018L1867.51 490.421L1865.28 491.602L1861.57 493.375H1859.71H1857.86H1855.26C1852.28 494.385 1848.89 495.185 1845.24 495.739L1841.52 496.478C1836.87 497.152 1831.99 497.55 1827.05 497.659H1678.57C1674.61 497.71 1670.66 497.421 1667.01 496.808C1663.36 496.197 1660.09 495.277 1657.41 494.114L1602.1 468.855L1407.59 496.478C1403.04 497.292 1398.1 497.695 1393.11 497.659C1386.37 497.733 1379.79 496.841 1374.56 495.148L1371.58 493.966L1278.78 451.72C1275.07 456.742 1272.1 461.765 1268.02 466.491L1265.79 468.56C1265.15 469.243 1264.28 469.89 1263.2 470.48L1260.97 471.661L1256.88 473.434L1251.69 475.355C1248.82 476.231 1245.7 476.974 1242.41 477.57L1231.64 482.887C1226.54 483.65 1221.14 484.049 1215.68 484.07H1093.93C1089.99 484.15 1086.06 483.887 1082.41 483.3C1078.75 482.713 1075.46 481.817 1072.77 480.672L1032.68 462.356L1015.23 485.399C1014.82 486.183 1014.07 486.933 1013.01 487.615L1010.78 489.535L1008.55 490.717L1004.84 492.489C1003.3 493.204 1001.55 493.848 999.644 494.409C996.558 495.235 993.333 495.975 989.994 496.625L985.168 497.659C980.198 498.451 974.925 498.901 969.576 498.989H749.084C745.063 499.061 741.048 498.782 737.33 498.169C733.608 497.557 730.272 496.626 727.556 495.443L695.261 480.672H578.335L575.735 484.217C575.285 484.977 574.662 485.718 573.879 486.433C572.871 487.041 572.002 487.684 571.28 488.353L569.054 489.535L565.342 491.308C563.794 492.023 562.052 492.666 560.146 493.228C557.06 494.052 553.835 494.793 550.492 495.443L545.667 496.478C540.7 497.27 535.427 497.719 530.077 497.807H392.363C388.401 497.859 384.461 497.568 380.807 496.957C377.156 496.344 373.879 495.425 371.206 494.262L328.517 474.911H201.195C197.259 474.991 193.328 474.729 189.674 474.142C186.02 473.555 182.731 472.658 180.037 471.514L6.68698 396.77C8.07519 397.328 9.71154 397.779 11.5127 398.1C8.30218 397.341 5.622 396.275 3.71788 394.997C1.27484 393.1 0 390.999 0 388.867C0 386.735 1.27484 384.634 3.71788 382.737C101.759 302.597 182.116 219.218 243.884 133.542V132.508L231.634 126.894C231.634 126.894 233.49 126.894 234.604 127.929C230.496 126.428 227.599 124.476 226.278 122.32C224.956 120.165 225.27 117.901 227.179 115.816L267.64 61.7527C271.017 57.6728 277.379 54.0871 285.911 51.4554C294.442 48.8237 304.754 47.2658 315.524 46.9812H464.005L488.132 14.7793C491.554 10.7098 497.928 7.13505 506.45 4.50603C514.972 1.87701 525.261 0.311643 536.016 0.00782619H674.846C678.972 -0.0561039 683.079 0.27238 686.822 0.96598C690.568 1.65957 693.839 2.69838 696.374 3.99619L743.888 25.7104L747.6 21.722C750.955 17.6091 757.362 13.9968 765.974 11.3603C774.589 8.72374 785.007 7.18636 795.858 6.95045H1286.21C1290.32 6.92112 1294.4 7.26512 1298.13 7.95616C1301.86 8.64718 1305.15 9.66718 1307.74 10.9388L1456.22 79.0354L1453.62 22.3129C1453.83 19.8142 1455.32 17.3586 1458 15.0976C1460.68 12.8367 1464.49 10.818 1469.21 9.16608C1478.18 5.45686 1490.43 3.28463 1503.36 3.10994H1651.84C1656.6 3.05168 1661.31 3.5002 1665.49 4.40911C1669.66 5.31803 1673.15 6.65423 1675.6 8.27982C1674.95 7.68651 1674.08 7.13795 1673 6.65495L1784.36 57.0257L1803.29 31.7667C1806.58 27.6654 1812.92 24.0578 1821.47 21.4203C1830.02 18.783 1840.37 17.24 1851.17 16.9952H2393.13C2397.27 16.9253 2401.4 17.2352 2405.2 17.901C2409 18.5669 2412.36 19.5709 2415.03 20.8356L2584.29 98.0904L2586.52 99.1246C2588.34 100.236 2589.48 101.5 2589.86 102.817C2589.86 102.817 2589.86 102.817 2589.86 103.556C2590.05 104.638 2590.05 105.724 2589.86 106.806C2589.99 107.642 2589.99 108.481 2589.86 109.317L2419.48 335.173L2417.25 337.389L2414.65 339.309C2414.65 339.309 2414.65 340.047 2412.43 340.49L2408.72 342.263L2403.15 344.184C2400.18 345.07 2396.84 345.661 2393.87 346.4C2390.9 347.138 2390.53 347.285 2389.04 347.434C2384.01 348.311 2378.58 348.764 2373.08 348.762H2298.84L2328.17 362.057V363.091C2330.05 364.458 2331.19 365.968 2331.51 367.522L2347.84 478.899V482.887C2347.84 482.887 2347.84 482.887 2347.84 483.922C2347.84 484.956 2345.24 485.399 2345.24 485.841Z" fill="black"/>
<path d="M40.0942 385.544C139.218 304.485 220.566 220.171 283.23 133.542H398.672C337.668 219.962 258.957 304.244 163.333 385.544H40.0942ZM786.204 21.4267L745.744 74.8997H1235.36L1275.82 21.4267H786.204ZM410.552 390.714H548.636C635.244 332.667 703.919 270.67 753.166 206.071H630.301C579.284 271.253 505.028 333.186 409.809 389.976L410.552 390.714ZM651.459 128.373L610.627 182.731H844.852L715.306 354.819H630.671L589.839 408.735H810.331L980.343 182.731H1207.89L1249.09 128.373H651.459ZM547.523 171.358L589.099 116.26H674.846L715.676 62.1961H630.671L667.792 15.3706H526.365L489.245 62.1961H305.501L264.67 116.26H450.269L231.262 409.03H368.976L498.153 237.385L546.78 256.441L596.15 190.856L547.523 171.358ZM1000.38 207.843C1003.94 270.399 982.387 332.781 936.541 392.634H1058.67C1104.77 332.701 1129.76 270.51 1132.9 207.843H1000.38ZM1643.67 17.4386H1493.34L1497.42 111.828H1648.13L1643.67 17.4386ZM1329.27 141.372L1285.84 199.276H1389.4L1231.64 409.03L1497.79 371.216L1546.42 306.368L1440.26 321.14L1575.74 141.223L1329.27 141.372ZM1666.69 408.735L1850.43 297.506H1701.95L1516.35 408.735H1666.69ZM1842.64 31.4715L1671.52 258.361H2213.46L2384.22 31.4715H1842.64ZM2114.35 201.787H1856.37L1941.75 87.8984H2201.59L2115.84 201.787M1974.04 297.062L1990.37 408.292H2138.85L2122.15 297.062H1974.04Z" fill="white"/>
</g>
<defs>
<clipPath id="clip0_408_647">
<rect width="6000" height="1000" fill="white"/>
</clipPath>
</defs>
</svg>
